<svg width="350" height="97" fill="none" xmlns="http://www.w3.org/2000/svg">
    <path d="M36.78 96.3c-7.713 0-14.3-1.603-19.76-4.81-5.46-3.207-9.663-7.453-12.61-12.74C1.55 73.463.12 67.743.12 61.59c0-6.587 1.43-12.61 4.29-18.07 2.86-5.46 7.02-9.837 12.48-13.13 5.46-3.293 12.09-4.94 19.89-4.94 7.713 0 14.3 1.647 19.76 4.94 5.46 3.293 9.577 7.627 12.35 13 2.86 5.373 4.29 11.137 4.29 17.29 0 2.513-.173 4.723-.52 6.63H22.22c.347 4.593 1.993 8.103 4.94 10.53 3.033 2.34 6.457 3.51 10.27 3.51 3.033 0 5.937-.737 8.71-2.21 2.773-1.473 4.68-3.467 5.72-5.98l17.68 4.94c-2.687 5.373-6.89 9.75-12.61 13.13-5.633 3.38-12.35 5.07-20.15 5.07ZM21.7 54.57h29.64c-.433-4.333-2.037-7.757-4.81-10.27-2.687-2.6-6.023-3.9-10.01-3.9s-7.367 1.3-10.14 3.9c-2.687 2.6-4.247 6.023-4.68 10.27ZM145.397 95l-17.81-27.3-7.28 7.41V95h-20.8V.1h20.8v54.86l23.14-28.21h21.97l-24.57 29.38L167.497 95h-22.1Zm152.924 0h-20.8V56.65c0-4.42-.824-7.67-2.47-9.75-1.647-2.08-3.77-3.12-6.37-3.12-2.774 0-5.504 1.127-8.19 3.38-2.687 2.253-4.594 5.157-5.72 8.71V95h-20.8V56.65c0-4.507-.824-7.757-2.47-9.75-1.647-2.08-3.77-3.12-6.37-3.12-2.774 0-5.504 1.127-8.19 3.38-2.6 2.253-4.507 5.157-5.72 8.71V95h-20.8V26.75h18.72v11.44c2.513-4.073 5.936-7.193 10.27-9.36 4.333-2.253 9.316-3.38 14.95-3.38 5.633 0 9.966 1.343 13 4.03 3.033 2.6 4.983 5.677 5.85 9.23 2.6-4.16 6.023-7.41 10.27-9.75 4.333-2.34 9.186-3.51 14.56-3.51 4.333 0 7.8.823 10.4 2.47 2.686 1.56 4.723 3.64 6.11 6.24 1.473 2.6 2.47 5.417 2.99 8.45.52 2.947.78 5.85.78 8.71V95Zm30.494-76.05V.1h20.8v18.85h-20.8Zm0 76.05V26.75h20.8V95h-20.8Z" fill="#5B5B5B" />
</svg>