<svg width="20" height="19" fill="none" xmlns="http://www.w3.org/2000/svg">
    <path fill-rule="evenodd" clip-rule="evenodd" d="M14.294 7.772a5.87 5.87 0 0 1-.476 2.313 6.037 6.037 0 0 1-1.356 1.962 6.272 6.272 0 0 1-2.029 1.31 6.441 6.441 0 0 1-4.786 0 6.273 6.273 0 0 1-2.029-1.31 6.037 6.037 0 0 1-1.356-1.962 5.871 5.871 0 0 1-.476-2.313c0-1.603.66-3.14 1.832-4.275a6.365 6.365 0 0 1 4.422-1.77c1.659 0 3.25.637 4.422 1.77a5.945 5.945 0 0 1 1.832 4.275Zm-1.235 6.073a8.232 8.232 0 0 1-5.69 1.673 8.144 8.144 0 0 1-5.321-2.564A7.621 7.621 0 0 1 .003 7.556a7.65 7.65 0 0 1 2.352-5.28A8.177 8.177 0 0 1 7.817.003 8.206 8.206 0 0 1 13.4 1.979a7.682 7.682 0 0 1 2.652 5.145 7.596 7.596 0 0 1-1.73 5.5l5.07 4.9a.865.865 0 0 1 .262.611.84.84 0 0 1-.262.612.899.899 0 0 1-.632.253.923.923 0 0 1-.633-.253l-5.067-4.902h-.002Z" fill="#343434" />
</svg>